<?xml version="1.0" encoding="UTF-8"?>
<svg id="Layer_2" data-name="Layer 2" xmlns="http://www.w3.org/2000/svg" viewBox="0 0 232.64 338.75">
  <defs>
    <style>
      .cls-1 {
        fill: #f9f9f9;
      }
    </style>
  </defs>
  <g id="Layer_1-2" data-name="Layer 1">
    <path class="cls-1" d="m220.04,121.39l-.1,6.12-1.61,107.13-99.01,1.61-6.05.1-101.58,1.66,2.06-110.5.1-6.12,1.96-105.53,97.46-1.96,6.05-.1,102.38-2.06-1.66,109.64Zm10.74,6.12l-.1-6.12-1.71-113.31-.05-3.51-3.51-.05-106.09-2.11-6.05-.15L8.08.15,0,0l.15,8.08,2.11,113.31.1,6.12,2.16,114.11.05,3.51,3.51.05,105.19,1.71,6.05.1,113.32,1.86-1.86-121.34Z"/>
    <g>
      <path class="cls-1" d="m165.71,140.08l-8.4,22.86-4.1,3.52-11.14,1.17h-3.71c.52-7.16.78-15.37.78-24.62v-3.52c-6.38,9.77-14.33,17.98-23.84,24.62-9.51,6.64-18.83,9.97-27.94,9.97-5.34,0-11.56-1.47-18.66-4.4-7.1-2.93-13.84-6.58-20.22-10.94-6.38-4.36-11.14-8.56-14.26-12.6,6.64,0,15.14-.62,25.5-1.86,10.36-1.24,21.07-2.9,32.14-4.98-1.3-7.82-3.52-17.03-6.64-27.65-3.13-10.62-6.19-19.44-9.18-26.48,2.74-5.6,6.02-11.1,9.87-16.51,3.84-5.4,7.46-9.61,10.85-12.6,1.95,4.43,3.97,13.22,6.06,26.38,2.08,13.16,3.06,25.4,2.93,36.74l-8.01,19.15c19.15-3.78,32.7-6.97,40.64-9.57-1.04-9.38-2.8-19.25-5.28-29.6-2.48-10.36-4.95-18.66-7.43-24.91,3-5.21,6.74-10.36,11.24-15.44,4.49-5.08,8.7-9.18,12.6-12.31,1.3,3.13,2.57,9.87,3.81,20.22,1.24,10.36,1.86,19.57,1.86,27.65,0,16.68-.65,31.2-1.95,43.58l11.33-1.17,1.17,3.32Z"/>
      <path class="cls-1" d="m152.81,185.8l35.37-9.57-3.91,20.13-34.78,7.62,3.32-18.17Zm38.1-70.15c-1.83,17.33-6.06,32.76-12.7,46.31-5.99,1.82-14.33,3.32-25.01,4.49l11.33-29.7c6.51-.78,11.79-1.76,15.83-2.93,1.82-7.16,3.25-13.29,4.3-18.37l6.25.2Z"/>
      <path class="cls-1" d="m36.45,309.65c-3.49.11-6.12,1.04-7.89,2.78-1.77,1.74-2.66,4.47-2.66,8.18,0,8.39,4.52,12.59,13.57,12.59,3.98,0,9.05-.6,15.21-1.8l.74,4.99-2.7.57c-5.61,1.2-10.44,1.8-14.47,1.8-6.16,0-10.83-1.59-14.02-4.78-3.19-3.19-4.78-7.78-4.78-13.78,0-4.52.93-8.04,2.78-10.55,1.85-2.51,4.63-4.2,8.34-5.07-3.92-3.22-7.06-6.91-9.4-11.08-2.34-4.17-3.57-7.83-3.68-11l-.25-5.8c6.98-3.65,13.71-5.48,20.19-5.48s13.22,1.83,20.36,5.48l-.25,5.8c-.11,2.13-.71,4.54-1.8,7.24-1.09,2.7-2.69,5.44-4.78,8.22-2.1,2.78-4.59,5.23-7.48,7.36,3.38,1.31,6.73,1.96,10.06,1.96h8.67v5.64h-8.67c-2.67,0-5.42-.33-8.26-.98-2.83-.65-5.42-1.58-7.77-2.78l-1.06.49h0Zm-12.75-29.76c0,4.42,1.27,8.57,3.8,12.47,2.53,3.9,5.87,7.21,10.02,9.93,4.2-2.72,7.56-6.04,10.1-9.93,2.53-3.9,3.8-8.05,3.8-12.47-5.4-2.02-10.03-3.03-13.9-3.03s-8.37,1.01-13.82,3.03h0Z"/>
      <rect class="cls-1" x="62.2" y="307.27" width="20.44" height="5.64"/>
      <rect class="cls-1" x="82.64" y="307.27" width="20.44" height="5.64"/>
      <polygon class="cls-1" points="129.82 307.27 129.82 312.92 103.08 312.92 103.08 307.27 113.14 307.27 113.14 254.21 119.43 254.21 119.43 307.27 129.82 307.27"/>
      <path class="cls-1" d="m193.59,307.27v5.64h-63.77v-5.64h7.69v-53.06h6.3v35.81c3.38-5.67,6.95-10.22,10.71-13.65,3.76-3.43,8.15-5.15,13.16-5.15,3.11,0,6.04.71,8.79,2.13,2.75,1.42,5.01,3.72,6.79,6.91,1.77,3.19,2.66,7.24,2.66,12.14v14.88h7.69Zm-27.14-30.41c-3.87,0-7.54,1.65-11,4.95-3.46,3.3-6.27,7.17-8.42,11.61-2.15,4.44-3.23,8.05-3.23,10.83v3.03h35.81v-14.96c0-3.6-.67-6.55-2-8.87-1.34-2.32-3.01-3.99-5.03-5.03-2.02-1.03-4.06-1.55-6.13-1.55h0Z"/>
      <path class="cls-1" d="m212.07,272.04v40.88h-18.48v-5.64h12.18v-35.24h6.3Zm-6.3-14.47h6.21v6.87h-6.21v-6.87Z"/>
    </g>
  </g>
</svg>